<svg width="247" height="309" viewBox="0 0 247 309" fill="none" xmlns="http://www.w3.org/2000/svg">
<path d="M99.33 244.55C122.563 244.55 139.92 237.17 151.4 222.41C163.153 207.65 169.03 183.597 169.03 150.25C169.03 120.183 163.153 98.3167 151.4 84.65C139.92 70.9833 122.563 64.15 99.33 64.15C94.1367 64.15 89.08 64.56 84.16 65.38C81.9733 65.9267 80.88 67.2933 80.88 69.48V238.81C80.88 241.27 81.9733 242.773 84.16 243.32C89.08 244.14 94.1367 244.55 99.33 244.55ZM91.13 0.599996C140.33 0.599996 178.597 13.8567 205.93 40.37C233.263 66.61 246.93 103.237 246.93 150.25C246.93 201.363 233.127 240.45 205.52 267.51C178.187 294.57 140.057 308.1 91.13 308.1C69.5367 308.1 47.1233 307.007 23.89 304.82C17.33 304.273 11.8633 301.403 7.49 296.21C3.11667 291.017 0.930003 285.14 0.930003 278.58V30.12C0.930003 23.56 3.11667 17.6833 7.49 12.49C11.8633 7.29666 17.33 4.42665 23.89 3.87998C47.1233 1.69332 69.5367 0.599996 91.13 0.599996Z" fill="#D9071C"/>
</svg>
