<svg width="1736" height="215" viewBox="0 0 1736 215" fill="none" xmlns="http://www.w3.org/2000/svg">
<path d="M99.345 80.5C111.875 80.5 119.035 73.34 119.035 62.6C119.035 51.86 111.875 44.7 99.345 44.7H31.325C18.795 44.7 11.635 51.86 11.635 62.6V153.89C11.635 164.63 18.795 171.79 31.325 171.79C43.855 171.79 51.015 164.63 51.015 153.89V130.62H77.865C90.395 130.62 97.555 123.46 97.555 112.72C97.555 101.98 90.395 94.82 77.865 94.82H51.015V80.5H99.345ZM170.057 60.81C170.057 50.07 162.897 42.91 150.367 42.91C137.837 42.91 130.677 50.07 130.677 60.81V153.89C130.677 164.63 137.837 171.79 150.367 171.79C162.897 171.79 170.057 164.63 170.057 153.89V60.81ZM234.427 112.72L264.857 153.89C272.912 165.525 279.177 171.79 289.917 171.79C302.447 171.79 309.607 164.451 309.607 153.89V60.81C309.607 50.07 302.447 42.91 289.917 42.91C277.387 42.91 270.227 50.07 270.227 60.81V101.98H268.437L238.007 60.81C229.952 49.175 223.687 42.91 212.947 42.91C200.417 42.91 193.257 50.249 193.257 60.81V153.89C193.257 164.63 200.417 171.79 212.947 171.79C225.477 171.79 232.637 164.63 232.637 153.89V112.72H234.427ZM374.991 110.93L384.836 84.08H386.626L396.471 110.93H374.991ZM366.936 143.15H404.526L409.001 153.89C413.476 164.63 420.636 171.79 430.481 171.79C442.116 171.79 450.171 163.735 450.171 153.89C450.171 148.52 445.696 137.78 445.696 137.78L417.056 62.6C411.865 49.175 403.631 41.12 385.731 41.12C367.831 41.12 359.776 49.175 354.406 62.6L325.766 137.78C325.766 137.78 321.291 148.52 321.291 153.89C321.291 163.735 329.346 171.79 340.981 171.79C350.826 171.79 357.986 164.63 362.461 153.89L366.936 143.15ZM502.927 112.72L533.357 153.89C541.412 165.525 547.677 171.79 558.417 171.79C570.947 171.79 578.107 164.451 578.107 153.89V60.81C578.107 50.07 570.947 42.91 558.417 42.91C545.887 42.91 538.727 50.07 538.727 60.81V101.98H536.937L506.507 60.81C498.452 49.175 492.187 42.91 481.447 42.91C468.917 42.91 461.757 50.249 461.757 60.81V153.89C461.757 164.63 468.917 171.79 481.447 171.79C493.977 171.79 501.137 164.63 501.137 153.89V112.72H502.927ZM596.951 119.88C596.951 150.31 620.221 173.58 656.916 173.58C690.031 173.58 707.931 155.68 707.931 143.15C707.931 133.305 701.666 127.04 688.241 127.04C673.921 127.04 672.131 139.57 656.916 139.57C645.281 139.57 637.226 131.515 637.226 119.88V94.82C637.226 83.185 645.281 75.13 656.916 75.13C670.341 75.13 672.131 87.66 686.451 87.66C699.876 87.66 706.141 81.395 706.141 71.55C706.141 59.02 688.241 41.12 656.916 41.12C620.221 41.12 596.951 64.39 596.951 94.82V119.88ZM809.052 80.5C821.582 80.5 828.742 73.34 828.742 62.6C828.742 51.86 821.582 44.7 809.052 44.7H741.032C728.502 44.7 721.342 51.86 721.342 62.6V152.1C721.342 162.84 728.502 170 741.032 170H810.842C823.372 170 830.532 162.84 830.532 152.1C830.532 141.36 823.372 134.2 810.842 134.2H760.722V123.46H794.732C805.472 123.46 812.632 116.3 812.632 107.35C812.632 98.4 805.472 91.24 794.732 91.24H760.722V80.5H809.052ZM981.759 80.5C994.289 80.5 1001.45 73.34 1001.45 62.6C1001.45 51.86 994.289 44.7 981.759 44.7H913.739C901.209 44.7 894.049 51.86 894.049 62.6V152.1C894.049 162.84 901.209 170 913.739 170H983.549C996.079 170 1003.24 162.84 1003.24 152.1C1003.24 141.36 996.079 134.2 983.549 134.2H933.429V123.46H967.439C978.179 123.46 985.339 116.3 985.339 107.35C985.339 98.4 978.179 91.24 967.439 91.24H933.429V80.5H981.759ZM1013.01 137.78C1013.01 137.78 1005.85 146.73 1005.85 153.89C1005.85 164.63 1013.01 171.79 1024.64 171.79C1035.38 171.79 1042.54 162.84 1042.54 162.84L1064.02 136.885H1065.81L1087.29 162.84C1087.29 162.84 1094.45 171.79 1105.19 171.79C1116.83 171.79 1123.99 164.63 1123.99 153.89C1123.99 146.73 1116.83 137.78 1116.83 137.78L1089.98 105.56L1113.25 76.92C1113.25 76.92 1120.41 67.97 1120.41 60.81C1120.41 50.07 1113.25 42.91 1101.61 42.91C1090.87 42.91 1083.71 51.86 1083.71 51.86L1065.81 75.13H1064.02L1046.12 51.86C1046.12 51.86 1038.96 42.91 1028.22 42.91C1016.59 42.91 1009.43 50.07 1009.43 60.81C1009.43 67.97 1016.59 76.92 1016.59 76.92L1039.86 105.56L1013.01 137.78ZM1175.88 100.19V76.92H1191.99C1200.94 76.92 1206.31 82.29 1206.31 88.555C1206.31 94.82 1200.94 100.19 1191.99 100.19H1175.88ZM1191.99 132.41C1227.79 132.41 1247.48 112.72 1247.48 88.555C1247.48 64.39 1227.79 44.7 1191.99 44.7H1156.19C1143.66 44.7 1136.5 51.86 1136.5 62.6V153.89C1136.5 164.63 1143.66 171.79 1156.19 171.79C1168.72 171.79 1175.88 164.63 1175.88 153.89V132.41H1191.99ZM1312.83 125.25L1341.47 162.84C1341.47 162.84 1348.63 171.79 1357.58 171.79C1371.9 171.79 1379.06 164.63 1379.06 153.89C1379.06 146.73 1371.9 137.78 1371.9 137.78L1354 116.3V114.51C1354 114.51 1373.69 107.35 1373.69 84.975C1373.69 60.81 1357.58 44.7 1319.99 44.7H1282.4C1269.87 44.7 1262.71 51.86 1262.71 62.6V153.89C1262.71 164.63 1269.87 171.79 1282.4 171.79C1294.93 171.79 1302.09 164.63 1302.09 153.89V125.25H1312.83ZM1302.09 94.82V75.13H1319.99C1328.05 75.13 1332.52 79.605 1332.52 84.975C1332.52 90.345 1328.05 94.82 1319.99 94.82H1302.09ZM1481.18 80.5C1493.71 80.5 1500.87 73.34 1500.87 62.6C1500.87 51.86 1493.71 44.7 1481.18 44.7H1413.16C1400.63 44.7 1393.47 51.86 1393.47 62.6V152.1C1393.47 162.84 1400.63 170 1413.16 170H1482.97C1495.5 170 1502.66 162.84 1502.66 152.1C1502.66 141.36 1495.5 134.2 1482.97 134.2H1432.85V123.46H1466.86C1477.6 123.46 1484.76 116.3 1484.76 107.35C1484.76 98.4 1477.6 91.24 1466.86 91.24H1432.85V80.5H1481.18ZM1575.97 130.62C1575.97 135.095 1571.49 139.57 1558.07 139.57C1542.85 139.57 1541.06 127.04 1526.74 127.04C1513.32 127.04 1507.05 133.305 1507.05 143.15C1507.05 155.68 1524.95 173.58 1558.07 173.58C1597.45 173.58 1617.14 153.89 1617.14 130.62C1617.14 89.45 1550.91 94.82 1550.91 82.29C1550.91 78.71 1554.49 75.13 1563.44 75.13C1576.86 75.13 1578.65 87.66 1592.97 87.66C1606.4 87.66 1612.66 81.395 1612.66 71.55C1612.66 59.02 1594.76 41.12 1563.44 41.12C1527.64 41.12 1509.74 59.02 1509.74 82.29C1509.74 125.25 1575.97 119.88 1575.97 130.62ZM1691.34 130.62C1691.34 135.095 1686.87 139.57 1673.44 139.57C1658.23 139.57 1656.44 127.04 1642.12 127.04C1628.69 127.04 1622.43 133.305 1622.43 143.15C1622.43 155.68 1640.33 173.58 1673.44 173.58C1712.82 173.58 1732.51 153.89 1732.51 130.62C1732.51 89.45 1666.28 94.82 1666.28 82.29C1666.28 78.71 1669.86 75.13 1678.81 75.13C1692.24 75.13 1694.03 87.66 1708.35 87.66C1721.77 87.66 1728.04 81.395 1728.04 71.55C1728.04 59.02 1710.14 41.12 1678.81 41.12C1643.01 41.12 1625.11 59.02 1625.11 82.29C1625.11 125.25 1691.34 119.88 1691.34 130.62Z" fill="black"/>
</svg>
