<svg width="1782" height="302" viewBox="0 0 1782 302" fill="none" xmlns="http://www.w3.org/2000/svg">
<path d="M454 154L465 124H467L478 154H454ZM445 190H487L492 202C497 214 505 222 516 222C529 222 538 213 538 202C538 196 533 184 533 184L501 100C495.2 85 486 76 466 76C446 76 437 85 431 100L399 184C399 184 394 196 394 202C394 213 403 222 416 222C427 222 435 214 440 202L445 190ZM687.945 140C687.945 106 661.945 80 618.945 80H583.945C569.945 80 561.945 88 561.945 100V200C561.945 212 569.945 220 583.945 220H618.945C661.945 220 687.945 194 687.945 160V140ZM618.945 116C632.945 116 642.945 126 642.945 140V160C642.945 174 632.945 184 618.945 184H605.945V116H618.945ZM818.016 120C832.016 120 840.016 112 840.016 100C840.016 88 832.016 80 818.016 80H742.016C728.016 80 720.016 88 720.016 100V200C720.016 212 728.016 220 742.016 220H820.016C834.016 220 842.016 212 842.016 200C842.016 188 834.016 180 820.016 180H764.016V168H802.016C814.016 168 822.016 160 822.016 150C822.016 140 814.016 132 802.016 132H764.016V120H818.016ZM862.93 164C862.93 198 888.93 224 929.93 224C966.93 224 986.93 204 986.93 190C986.93 179 979.93 172 964.93 172C948.93 172 946.93 186 929.93 186C916.93 186 907.93 177 907.93 164V136C907.93 123 916.93 114 929.93 114C944.93 114 946.93 128 962.93 128C977.93 128 984.93 121 984.93 110C984.93 96 964.93 76 929.93 76C888.93 76 862.93 102 862.93 136V164ZM1043.91 120V202C1043.91 214 1051.91 222 1065.91 222C1079.91 222 1087.91 214 1087.91 202V120H1109.91C1123.91 120 1131.91 112 1131.91 100C1131.91 88 1123.91 80 1109.91 80H1021.91C1007.91 80 999.914 88 999.914 100C999.914 112 1007.91 120 1021.91 120H1043.91ZM1209.95 126L1183.95 88C1183.95 88 1176.95 78 1165.95 78C1150.95 78 1142.95 86 1142.95 98C1142.95 106 1150.95 116 1150.95 116L1188.95 170V202C1188.95 214 1196.95 222 1210.95 222C1224.95 222 1232.95 214 1232.95 202V170L1270.95 116C1270.95 116 1278.95 106 1278.95 98C1278.95 86 1270.95 78 1255.95 78C1244.95 78 1237.95 88 1237.95 88L1211.95 126H1209.95ZM1413.94 142V116H1431.94C1441.94 116 1447.94 122 1447.94 129C1447.94 136 1441.94 142 1431.94 142H1413.94ZM1431.94 178C1471.94 178 1493.94 156 1493.94 129C1493.94 102 1471.94 80 1431.94 80H1391.94C1377.94 80 1369.94 88 1369.94 100V202C1369.94 214 1377.94 222 1391.94 222C1405.94 222 1413.94 214 1413.94 202V178H1431.94ZM1562.9 154L1573.9 124H1575.9L1586.9 154H1562.9ZM1553.9 190H1595.9L1600.9 202C1605.9 214 1613.9 222 1624.9 222C1637.9 222 1646.9 213 1646.9 202C1646.9 196 1641.9 184 1641.9 184L1609.9 100C1604.1 85 1594.9 76 1574.9 76C1554.9 76 1545.9 85 1539.9 100L1507.9 184C1507.9 184 1502.9 196 1502.9 202C1502.9 213 1511.9 222 1524.9 222C1535.9 222 1543.9 214 1548.9 202L1553.9 190ZM1712.93 126L1686.93 88C1686.93 88 1679.93 78 1668.93 78C1653.93 78 1645.93 86 1645.93 98C1645.93 106 1653.93 116 1653.93 116L1691.93 170V202C1691.93 214 1699.93 222 1713.93 222C1727.93 222 1735.93 214 1735.93 202V170L1773.93 116C1773.93 116 1781.93 106 1781.93 98C1781.93 86 1773.93 78 1758.93 78C1747.93 78 1740.93 88 1740.93 88L1714.93 126H1712.93Z" fill="#D9071C"/>
<path d="M216 134.893C216 125.998 223.163 118.787 232 118.787H306C314.837 118.787 322 125.998 322 134.893V167.107C322 176.002 314.837 183.213 306 183.213H232C223.163 183.213 216 176.002 216 167.107V134.893Z" fill="#D9071C"/>
<path d="M40 0C17.9086 0 0 18.028 0 40.2667V261.733C0 283.972 17.9086 302 40 302H260C282.091 302 300 283.972 300 261.733V212.407H231C206.699 212.407 187 192.576 187 168.113V133.887C187 109.424 206.699 89.5933 231 89.5933H300V40.2667C300 18.028 282.091 0 260 0H40Z" fill="#D9071C"/>
</svg>
