<svg width="322" height="300" viewBox="0 0 322 300" fill="none" xmlns="http://www.w3.org/2000/svg">
<path d="M216 134C216 125.163 223.163 118 232 118H306C314.837 118 322 125.163 322 134V166C322 174.837 314.837 182 306 182H232C223.163 182 216 174.837 216 166V134Z" fill="#D9071C"/>
<path d="M40 0C17.9086 0 0 17.9086 0 40V260C0 282.091 17.9086 300 40 300H260C282.091 300 300 282.091 300 260V211H231C206.699 211 187 191.301 187 167V133C187 108.699 206.699 89 231 89H300V40C300 17.9086 282.091 0 260 0H40Z" fill="#D9071C"/>
</svg>
