<svg width="300" height="300" viewBox="0 0 300 300" fill="none" xmlns="http://www.w3.org/2000/svg">
<path d="M142.892 0.332275C136.112 1.51706 131.81 3.03096 124.447 6.71695C117.886 9.9751 32.6245 54.4044 26.7922 57.5639C21.5796 60.3942 16.294 63.784 13.8153 65.8902C7.54556 71.2218 2.7339 79.1861 0.801944 87.3809L0 90.8694V149.944V209.019L0.838396 212.573C2.7339 220.636 7.58202 228.699 13.633 233.8C16.4034 236.137 20.5225 238.836 25.3341 241.468C29.8906 243.97 111.762 286.688 122.843 292.348C131.774 296.89 135.638 298.305 142.126 299.358C147.266 300.214 152.734 300.214 157.874 299.358C164.399 298.305 168.153 296.923 177.521 292.184C184.848 288.432 265.188 246.57 272.843 242.489C278.384 239.527 283.706 236.137 286.148 233.965C292.71 228.205 297.266 220.735 299.162 212.573L300 209.019V149.944V90.8694L299.198 87.3809C297.558 80.4697 294.35 74.4799 289.21 68.8193C285.601 64.87 281.373 61.908 272.843 57.3993C269.927 55.8525 253.123 47.0654 235.48 37.8833C217.837 28.7012 197.169 17.9065 189.55 13.9243C170.231 3.82078 166.403 2.14237 159.113 0.694305C155.431 -0.0626391 146.282 -0.227205 142.892 0.332275ZM158.384 30.4126C163.742 32.848 255.529 80.6342 261.179 83.9582C267.23 87.4796 268.396 89.4543 268.906 96.9579C269.089 99.854 269.198 124.734 269.125 154.387L269.016 206.715L268.214 208.624C266.719 212.244 264.022 214.613 257.533 218.069C242.333 226.165 159.842 268.916 157.072 270.134C153.426 271.746 153.244 271.779 150 271.779C146.756 271.779 146.574 271.746 142.928 270.134C140.158 268.916 57.6671 226.165 42.4666 218.069C35.8688 214.58 33.3171 212.31 31.7861 208.624L30.9842 206.715L30.8748 154.387C30.8019 125.59 30.9113 99.7553 31.0936 96.9579C31.3852 92.3504 31.531 91.6922 32.4423 90.0466C32.9891 89.0593 33.8275 87.7429 34.3378 87.1505C35.2126 86.1303 38.6391 83.8594 42.5395 81.7861C54.3135 75.5001 139.757 31.1695 142.345 29.9847C146.027 28.3063 148.214 27.8456 151.458 28.0759C153.026 28.1747 154.52 28.7012 158.384 30.4126Z" fill="black"/>
<path d="M144.6 26.2758C138.973 27.2592 135.403 28.5157 129.291 31.5751C123.845 34.2793 53.0784 71.1557 48.2375 73.778C43.9111 76.1272 39.5241 78.9407 37.4667 80.6889C32.2628 85.1141 28.2691 91.7245 26.6656 98.5261L26 101.422V150.454V199.485L26.6959 202.436C28.2691 209.128 32.2931 215.82 37.3154 220.054C39.6148 221.994 43.0337 224.234 47.0273 226.419C50.8092 228.495 118.762 263.951 127.96 268.649C135.372 272.419 138.579 273.593 143.965 274.467C148.231 275.178 152.769 275.178 157.035 274.467C162.451 273.593 165.567 272.446 173.343 268.512C179.424 265.398 246.106 230.653 252.46 227.266C257.059 224.807 261.476 221.994 263.503 220.191C268.949 215.411 272.731 209.21 274.304 202.436L275 199.485V150.454V101.422L274.334 98.5261C272.973 92.7898 270.31 87.8183 266.044 83.12C263.049 79.8421 259.54 77.3837 252.46 73.6414C250.039 72.3576 236.092 65.0643 221.448 57.4431C206.805 49.822 189.65 40.8624 183.327 37.5572C167.292 29.1713 164.115 27.7782 158.064 26.5763C155.008 25.948 147.414 25.8114 144.6 26.2758ZM157.459 51.2425C161.906 53.2638 238.089 92.9264 242.778 95.6853C247.801 98.6081 248.769 100.247 249.192 106.475C249.344 108.879 249.434 129.53 249.374 154.141L249.283 197.573L248.617 199.158C247.377 202.162 245.138 204.129 239.753 206.997C227.136 213.717 158.669 249.2 156.369 250.211C153.344 251.549 153.193 251.577 150.5 251.577C147.807 251.577 147.656 251.549 144.63 250.211C142.331 249.2 73.8637 213.717 61.2473 206.997C55.7711 204.102 53.6532 202.217 52.3825 199.158L51.7169 197.573L51.6261 154.141C51.5656 130.24 51.6564 108.797 51.8077 106.475C52.0497 102.651 52.1707 102.105 52.9271 100.739C53.3809 99.9192 54.0768 98.8266 54.5004 98.3349C55.2265 97.4881 58.0705 95.6033 61.3078 93.8824C71.0802 88.6651 141.998 51.8707 144.146 50.8873C147.202 49.4942 149.017 49.1118 151.71 49.303C153.011 49.385 154.252 49.822 157.459 51.2425Z" fill="black"/>
<path d="M145.078 94.0288C130.534 95.049 116.391 100.907 106.184 110.188C85.6616 128.848 82.0164 157.053 97.1805 179.465C105.965 192.399 121.02 201.877 137.533 204.905C168.189 210.5 198.699 194.735 208.796 168.045C216.451 147.805 210.692 125.524 193.815 110.188C185.431 102.553 174.24 97.1224 162.466 94.9832C159.222 94.3908 150.911 93.601 149.27 93.7326C148.979 93.7326 147.083 93.8643 145.078 94.0288ZM155.905 122.332C161.336 123.352 166.002 125.426 170.194 128.75C177.521 134.542 180.984 141.321 180.984 149.944C180.984 157.184 178.651 162.845 173.474 168.176C168.59 173.245 162.94 176.24 155.905 177.556C152.733 178.148 146.208 177.984 142.964 177.26C136.439 175.779 132.831 173.936 128.128 169.657C123.389 165.313 121.385 162.154 119.744 156.296C118.76 152.84 118.76 147.048 119.744 143.592C121.385 137.668 123.462 134.41 128.165 130.198C132.903 125.952 136.439 124.142 142.818 122.628C145.844 121.904 152.806 121.74 155.905 122.332Z" fill="black"/>
</svg>
