<svg width="322" height="320" viewBox="0 0 322 320" fill="none" xmlns="http://www.w3.org/2000/svg">
<path d="M0 63.2683C0 48.9089 11.6406 37.2683 26 37.2683H270C284.359 37.2683 296 48.9089 296 63.2683V89.2683C296 103.628 284.359 115.268 270 115.268H26C11.6406 115.268 0 103.628 0 89.2683V63.2683Z" fill="#D9071C"/>
<path d="M309 53.7516C326.333 63.759 326.333 88.7775 309 98.7849L222 149.014C204.667 159.022 183 146.513 183 126.498V26.0388C183 6.02402 204.667 -6.48528 222 3.52212L309 53.7516Z" fill="#D9071C"/>
<path d="M322 256.268C322 270.628 310.359 282.268 296 282.268L52 282.268C37.6406 282.268 26 270.628 26 256.268L26 230.268C26 215.909 37.6406 204.268 52 204.268L296 204.268C310.359 204.268 322 215.909 322 230.268L322 256.268Z" fill="#D9071C"/>
<path d="M13 265.785C-4.3333 255.777 -4.33333 230.759 13 220.752L100 170.522C117.333 160.515 139 173.024 139 193.039L139 293.498C139 313.512 117.333 326.022 100 316.014L13 265.785Z" fill="#D9071C"/>
</svg>
